<!-- Generated by IcoMoon.io -->
<svg version="1.1" xmlns="http://www.w3.org/2000/svg" width="1024" height="1024" viewBox="0 0 1024 1024">
<title></title>
<g id="icomoon-ignore">
</g>
<path fill="#000" d="M512 123.732c-214.434 0-388.267 173.834-388.267 388.266 0 214.434 173.833 388.267 388.267 388.267s388.266-173.833 388.266-388.267c0-214.433-173.833-388.266-388.266-388.266zM46.933 511.999c0-256.848 208.217-465.066 465.067-465.066 256.848 0 465.066 208.218 465.066 465.066 0 256.85-208.217 465.067-465.066 465.067s-465.067-208.217-465.067-465.067z"></path>
<path fill="#000" d="M515.697 337.053c-13.33-0.663-26.587 2.31-38.359 8.599-11.77 6.289-21.611 15.658-28.469 27.107s-10.477 24.544-10.47 37.889l-76.8 0.045c-0.016-27.262 7.377-54.017 21.388-77.404s34.112-42.527 58.159-55.375c24.045-12.848 51.131-18.919 78.359-17.567 27.23 1.353 53.58 10.079 76.234 25.246 22.654 15.168 40.761 36.206 52.385 60.867s16.328 52.016 13.61 79.143c-2.718 27.127-12.756 53.005-29.041 74.869-16.135 21.663-37.803 38.578-62.723 48.975-5.888 2.734-10.868 7.104-14.342 12.594-3.555 5.616-5.376 12.153-5.238 18.798l0.009 0.399v16.1h-76.8v-15.345c-0.363-21.574 5.593-42.786 17.134-61.025 11.622-18.362 28.393-32.894 48.222-41.784l0.547-0.246 0.554-0.228c12.342-5.078 23.072-13.413 31.045-24.115 7.971-10.702 12.885-23.371 14.216-36.649s-0.973-26.669-6.663-38.741c-5.689-12.071-14.553-22.37-25.642-29.794-11.090-7.425-23.988-11.697-37.316-12.358z"></path>
<path fill="#000" d="M512 757.333c29.455 0 53.333-23.878 53.333-53.334s-23.878-53.333-53.333-53.333c-29.456 0-53.334 23.878-53.334 53.333 0 29.456 23.878 53.334 53.334 53.334z"></path>
</svg>
